<svg xmlns="http://www.w3.org/2000/svg" viewBox="0 0 26.769 26.769" width="512" height="512"><path d="M17.601 12.297a2.78 2.78 0 0 1 1.854-.457l7.314-7.316L22.673.428l-7.315 7.316c.074.65-.09 1.314-.476 1.877l2.719 2.676z" fill="#D80027"/><path fill="#7f8c8d" d="M4.842 21.207l-.265-.265-1.387 1.121-2.336 3.681.598.598 3.684-2.336 1.12-1.383-.266-.269 4.652-4.653-1.156-1.14z"/><path d="M11.204 8.307a5.709 5.709 0 0 0-1.457-5.576 5.708 5.708 0 0 0-5.532-1.469l3.233 3.232L6.6 7.66l-3.17.848-3.232-3.23a5.702 5.702 0 0 0 1.473 5.529 5.715 5.715 0 0 0 5.815 1.389l.018.018 13.299 13.299a2.693 2.693 0 0 0 3.811 0 2.697 2.697 0 0 0 0-3.811L11.204 8.307zM22.94 25.061a1.027 1.027 0 0 1-1.025-1.029 1.029 1.029 0 1 1 1.025 1.029z" fill="#bdc3c7"/></svg>