<svg xmlns="http://www.w3.org/2000/svg" viewBox="0 0 412.156 412.156"><path fill="#f9e17a" d="M336.773 377.895l4.724-37.798-64.966-64.967 3.543 46.067z"/><path fill="#e0c75f" d="M379.296 335.372l-37.799 4.725-64.966-64.967 46.067 3.544z"/><path fill="#f9e17a" d="M337.466 58.387l8.485 8.485L65.499 347.324l-8.485-8.485z"/><path d="M346.514 355.72L55.574 64.781a7.5 7.5 0 0 1 10.607-10.606l290.94 290.939-10.607 10.606z" fill="#f99c38"/><path d="M40.096 407.065c17.877-17.878 21.204-45.771 8.091-67.831-23.568-39.645-33.541-86.842-28.08-132.898 5.631-47.496 26.523-90.517 60.417-124.411 33.895-33.894 76.915-54.786 124.412-60.417 46.057-5.461 93.254 4.511 132.898 28.079 22.06 13.115 49.952 9.787 67.83-8.09 8.229 8.229 6.212 22.16-4.106 27.545-22.758 11.877-50.748 11.526-73.945-2.264-75.206-44.707-170.996-32.662-232.947 29.289-61.952 61.952-73.995 157.743-29.288 232.947 13.79 23.197 14.14 51.188 2.263 73.945-5.385 10.318-19.316 12.335-27.545 4.106z" fill="#666"/><path d="M33.237 65.197a27.01 27.01 0 0 1-18.6-18.6L1.401 0l46.596 13.236a27.01 27.01 0 0 1 18.6 18.6c5.78 20.347-13.013 39.14-33.36 33.361z" fill="#ef5252"/></svg>