<svg xmlns="http://www.w3.org/2000/svg" width="1024" height="600" viewBox="0 0 1024 600"><path fill="#E45126" d="M53.07 531.97L26 228.35h297.45l-27.098 303.571-121.809 33.769z"/><path fill="#F1682B" d="M174.725 539.878l98.427-27.287 23.158-259.416H174.725z"/><path fill="#EBEBEB" d="M174.725 365.784H125.45l-3.404-38.132h52.679v-37.239H81.35l.892 9.991 9.152 102.616h83.331zm0 96.707l-.163.047-41.472-11.2-2.652-29.697h-37.38l5.217 58.467 76.278 21.176.172-.049z"/><path d="M53.675 145.838h18.924v18.696H89.91v-18.696h18.925v56.618H89.911v-18.958h-17.31v18.958H53.675v-56.618zm80.044 18.776h-16.66v-18.775h52.252v18.775h-16.667v37.843H133.72l-.001-37.843zm43.885-18.776h19.733l12.137 19.894 12.127-19.894h19.739v56.618h-18.846v-28.063l-13.021 20.13h-.325l-13.028-20.13v28.063h-18.517l.001-56.618zm73.154 0h18.929v37.903h26.612v18.714h-45.542l.001-56.617z" fill="#020202"/><path fill="#FFF" d="M174.596 365.784v37.236h45.854l-4.322 48.292-41.532 11.212v38.743l76.34-21.159.559-6.291 8.751-98.034.908-9.999H251.12zm0-75.371v37.239h89.947l.747-8.37 1.696-18.878.891-9.991z"/><path d="M933.643 161.385h-24.689l25.675 27.859v13.26h-52.883v-15.525h25.67l-25.67-27.86v-13.281h51.897v15.547zm-62.378 0h-24.689l25.674 27.859v13.26h-52.883v-15.525h25.672l-25.672-27.86v-13.281h51.898v15.547zm-61.769.631h-26.64v24.313h26.64v16.175h-45.573v-56.666h45.573z" fill="#151515"/><path fill="#1673B6" d="M727.62 531.994l-27.07-303.62H998l-27.097 303.571-121.81 33.77z"/><path fill="#35A9DB" d="M849.276 539.904l98.427-27.289L970.86 253.2H849.276z"/><path fill="#FFF" d="M849.275 363.2h49.276l3.402-38.132h-52.678v-37.239h93.375l-.892 9.991-9.153 102.616h-83.33z"/><path fill="#EBEBEB" d="M849.498 459.907l-.162.047-41.473-11.2-2.651-29.697h-37.38l5.217 58.468 76.277 21.176.172-.049z"/><path fill="#FFF" d="M895.386 398.859l-4.485 49.87-41.532 11.211v38.742l76.34-21.157.56-6.291 6.477-72.375z"/><path fill="#EBEBEB" d="M849.404 287.829v37.239h-89.947l-.746-8.37-1.697-18.878-.891-9.991zm-.129 75.375v37.237h-40.947l-.746-8.368-1.697-18.878-.891-9.991z"/><g><path fill="#E4A227" d="M390.345 408.754l-27.07-303.622h297.45l-27.098 303.573-121.809 33.77z"/><path fill="#F0BF26" d="M511.75 416.287L610.178 389l23.158-259.417H511.75z"/><path fill="#151515" d="M564.936 38.071h-24.69l25.676 27.86v13.26h-52.883V63.665h25.67l-25.67-27.859V22.525h51.897v15.546z"/><path fill="#020202" d="M503.621 22.55v56.617h-45.543V60.453h26.613V22.55h18.93z"/><path fill="#EBEBEB" d="M511.693 338.926l-.162.047-41.472-11.2-2.653-29.698h-37.379l5.217 58.468 76.277 21.176.172-.049zm5.016-59.489V242.2h-45.854l5.377-58.442 40.58-1.081-.103-38.723h-74.144l-2.754 27.449-8.752 98.035-.908 9.999h10.035z"/><path fill="#FFF" d="M516.457 182.729l.163-.046 40.671 2.449 3.451 38.447h37.381l-6.514-71.946-74.98-7.696-.172.048z"/><path fill="#FFF" d="M594.284 182.843l-3.191-38.889H512.49v38.889h81.794m-82.72 59.375v37.236h45.854l-4.322 48.294-41.532 11.211v38.742l76.34-21.158.559-6.291 8.752-98.035.908-9.999h-10.035z"/></g></svg>