<svg xmlns="http://www.w3.org/2000/svg" viewBox="0 0 58.006 58.006">
    <path d="M56.811 18.884c-.437-2.145-1.596-4.05-3.125-5.568-2.196-2.18-6.175-4.304-10.781-4.304H29.002 15.099c-4.606 0-8.585 2.124-10.781 4.304-1.529 1.518-2.687 3.424-3.125 5.568-.883 4.334 1.457 6.996 3.626 8.481 1.424.975 3.091 1.465 4.789 1.657 4.296.485 6.699 2.858 7.985 4.867.83 1.296 1.296 2.798 1.518 4.336 1.241 8.608 4.431 13.666 6.855 16.377a4.044 4.044 0 0 0 6.072 0c2.425-2.71 5.614-7.768 6.855-16.377.222-1.537.688-3.04 1.518-4.336 1.286-2.01 3.689-4.382 7.985-4.867 1.698-.192 3.365-.682 4.789-1.657 2.17-1.485 4.51-4.147 3.626-8.481z" fill="#cbd4d8"/>
    <path d="M57.003 19.984l-.039-.002c.314 3.689-1.798 6.028-3.777 7.383-1.424.975-3.091 1.465-4.789 1.657-2.219.25-3.924 1.008-5.24 1.955l.283 2.931s1.71 15.872 5.753 19.859c1.948 1.921 3.629 1.255 4.663.415.683-.556 1.193-1.292 1.526-2.108 4.544-11.129 1.853-30.952 1.62-32.09zM9.608 29.023c-1.698-.192-3.365-.682-4.789-1.657-1.979-1.355-4.091-3.694-3.777-7.383l-.039.002c-.233 1.138-2.925 20.96 1.62 32.09.333.815.843 1.552 1.526 2.108 1.033.84 2.715 1.506 4.663-.415 4.043-3.987 5.753-19.859 5.753-19.859l.283-2.931c-1.316-.948-3.021-1.705-5.24-1.955zM43.003 9.012h-28l1.07-2.675a4.897 4.897 0 0 1 3.359-2.932l1.031-.258c5.811-1.573 11.473-1.402 17.08 0l1.031.258a4.897 4.897 0 0 1 3.359 2.932l1.07 2.675z" fill="#afb6bb"/>
    <circle cx="37.003" cy="17.012" r="3" fill="#43b05c"/>
    <circle cx="43.003" cy="23.012" r="3" fill="#1081e0"/>
    <path d="M19.333 18.012h-1.66a.67.67 0 0 1-.67-.67v-1.66c0-.37-.3-.67-.67-.67h-2.66c-.37 0-.67.3-.67.67v1.66c0 .37-.3.67-.67.67h-1.66c-.37 0-.67.3-.67.67v2.66c0 .37.3.67.67.67h1.66c.37 0 .67.3.67.67v1.66c0 .37.3.67.67.67h2.66c.37 0 .67-.3.67-.67v-1.66c0-.37.3-.67.67-.67h1.66c.37 0 .67-.3.67-.67v-2.66c0-.37-.3-.67-.67-.67z" fill="#38454f"/>
    <circle cx="29.003" cy="35.012" r="4" fill="#e7eced"/>
    <path d="M33 35.036a3.999 3.999 0 0 1-7.996 0 4.952 4.952 0 0 0-1.002 2.976 5 5 0 0 0 10 0A4.95 4.95 0 0 0 33 35.036z" fill="#546a79"/>
    <circle cx="48.003" cy="14.012" r="1" fill="#ebba16"/>
    <circle cx="48.003" cy="18.012" r="1" fill="#ebba16"/>
    <circle cx="46.003" cy="16.012" r="1" fill="#ebba16"/>
    <circle cx="50.003" cy="16.012" r="1" fill="#ebba16"/>
</svg>
