<svg xmlns="http://www.w3.org/2000/svg" width="512" height="512" viewBox="0 0 473.805 473.805">
    <g fill="#2980b9">
        <path d="M103.007 148.388l-71.996-22.386c-12.603-3.93-26 3.107-29.931 15.73-3.911 12.604 3.127 26.01 15.74 29.921l81.31 25.283a23.653 23.653 0 0 0 7.096 1.081c3.758 0 7.497-.89 10.901-2.63l45.221-23.17 22.51 77.771c-2.438.832-4.781 1.951-6.942 3.414l-45.125 30.801c-12.766 8.712-16.333 25.972-8.071 39.034l45.776 72.312-50.873 7.774c-37.131 5.671-62.596 23.495-56.83 39.79 5.738 16.294 40.517 25.044 77.667 19.507l262.701-39.015c37.149-5.527 69.165-24.595 71.508-42.601 2.343-17.997-25.856-27.99-62.998-22.319l-49.342 7.545-51.848-102.128c-.316-.611-.708-1.186-1.062-1.778l-27.923-110.438 64.106-7.038a23.82 23.82 0 0 0 14.354-6.933l63.237-63.744c9.304-9.371 9.247-24.508-.134-33.803-9.362-9.304-24.499-9.247-33.804.134L330.966 98.24l-64.681 7.105a24.231 24.231 0 0 0-4.839 1.052l-107.989 18.58c-3.318.153-6.636.947-9.772 2.563l-40.678 20.848zm98.925 157.408h64.346l35.324 69.567-70.208 10.729-44.389-70.122 14.927-10.174z"/>
        <circle cx="194.721" cy="57.344" r="47.822"/>
    </g>
</svg>
