<svg xmlns="http://www.w3.org/2000/svg" viewBox="0 0 512 512">
    <path d="M309.462 124.65c-8.387 8.398-12.653 20.045-13.324 33.708-13.271.166-24.126 4.983-32.139 12.93v-68.129c0-22.054 10.774-40 32.83-40 20.594 2.734 38.164-1.133 49.695-12.617C358.07 39.01 361.922 21.44 359.133.862 338.57-1.904 321 1.909 309.461 13.487c-8.388 8.399-12.654 20.045-13.324 33.708-30.44.38-48.137 25.325-48.137 55.963v24.498c-10.259-10.492-24.529-17.094-40.127-17.291-.664-13.67-4.947-25.325-13.326-33.73-11.531-11.547-29.102-15.398-49.679-12.61-2.774 20.563 1.046 38.133 12.617 49.672 11.516 11.5 29.093 15.336 49.68 12.633 22.055 0 40.835 17.945 40.835 40v65.326c-10.259-10.492-24.529-17.094-40.127-17.291-.664-13.67-4.947-25.325-13.326-33.73-11.531-11.547-29.102-15.398-49.679-12.61-2.774 20.563 1.046 38.133 12.617 49.672 11.516 11.5 29.093 15.336 49.68 12.633 22.055 0 40.835 17.945 40.835 40V312h16v-97.678c0-22.054 10.775-40 32.829-40v.005c20.594 2.745 38.172-1.13 49.696-12.615 11.546-11.531 15.398-29.102 12.609-49.679-20.563-2.773-38.133 1.047-49.672 12.617z" fill="#3cb44a"/>
    <g fill="#0e9247">
        <path d="M264 103.158c0-22.055 10.773-40 32.83-40v-.005h.013-.001c20.587 2.739 38.162-1.136 49.683-12.618 11.545-11.53 15.396-29.099 12.61-49.674L308.71 51.287a16.004 16.004 0 0 1-11.314 4.686H296l.001.014c-26.052 0-40.001 21.119-40.001 47.172v78.722c2.233-3.93 4.888-7.507 8-10.592v-68.131zM359.134 112.038l-50.425 50.426c-3 3.001-7.07 4.687-11.314 4.687h-1.394c-26.052 0-40.001 21.119-40.001 47.172V312h8v-97.678c0-22.055 10.774-40 32.829-40l.001.007h.014l-.001.001c20.586 2.738 38.162-1.137 49.682-12.619 11.544-11.529 15.396-29.098 12.609-49.673z"/>
    </g>
    <path d="M360 312H152c-4.4 0-8 3.6-8 8v32c0 4.4 3.6 8 8 8h8l21.868 138.495A15.999 15.999 0 0 0 197.672 512h116.656a16 16 0 0 0 15.804-13.505L352 360h8c4.4 0 8-3.6 8-8v-32c0-4.4-3.6-8-8-8z" fill="#ed2c39"/>
    <path d="M352 336a8 8 0 0 1-8 8H168c-8.837 0-16 7.163-16 16h160l-19.342 122.495A16 16 0 0 1 276.854 496h-95.381l.395 2.495A16 16 0 0 0 197.673 512h116.655a16 16 0 0 0 15.804-13.505L352 360h8a8 8 0 0 0 8-8v-32c-8.837 0-16 7.163-16 16z" fill="#cb202c"/>
    <g fill="#0e9247">
        <path d="M207.999 119.159l.002-.022h-1.395a16 16 0 0 1-11.313-4.686l-50.425-50.426c-2.787 20.575 1.064 38.143 12.61 49.674 11.52 11.482 29.095 15.357 49.682 12.618h-.001.005v.013c22.055 0 40.835 17.945 40.835 40v-25.862c-8.675-12.825-23.506-21.307-40-21.309zM207.999 223.159l.002-.022h-1.395a16 16 0 0 1-11.313-4.686l-50.425-50.426c-2.787 20.575 1.064 38.143 12.61 49.674 11.52 11.482 29.095 15.357 49.682 12.618h-.001.005v.013c22.055 0 40.835 17.945 40.835 40v-25.862c-8.675-12.825-23.506-21.307-40-21.309z"/>
    </g>
</svg>
